<?xml version="1.0" encoding="UTF-8"?>
<!DOCTYPE svg PUBLIC "-//W3C//DTD SVG 1.1//EN" "http://www.w3.org/Graphics/SVG/1.1/DTD/svg11.dtd">
<!-- Creator: CorelDRAW 2019 (64 Bit) -->
<svg xmlns="http://www.w3.org/2000/svg" xml:space="preserve" width="300cm" height="212.121cm" version="1.1" style="shape-rendering:geometricPrecision; text-rendering:geometricPrecision; image-rendering:optimizeQuality; fill-rule:evenodd; clip-rule:evenodd"
viewBox="0 0 300000 212121.21"
 xmlns:xlink="http://www.w3.org/1999/xlink">
 <defs>
  <style type="text/css">
   <![CDATA[
    .str0 {stroke:white;stroke-width:202.02;stroke-miterlimit:22.9256}
    .fil0 {fill:white}
    .fil1 {fill:white;fill-rule:nonzero}
   ]]>
  </style>
 </defs>
 <g id="Camada_x0020_1">
  <metadata id="CorelCorpID_0Corel-Layer"/>
  <path class="fil0" d="M43311.31 120161.92c146.16,-522.63 -563.03,-1175.76 -1276.77,-1175.76 -300.1,0 -577.47,68.69 -830.4,204.04l211.41 -461.21c141.72,-254.85 285.56,-514.34 433.13,-777.88 273.74,-536.26 653.54,-1041.31 993.23,-1574.04 191.92,-253.23 386.16,-508.69 581.21,-765.35l295.05 -382.32 318.38 -366.46c216.16,-242.73 418.48,-493.94 642.63,-727.27 225.66,-230.51 451.21,-460.3 674.75,-688.69 216.87,-233.84 465.25,-435.35 693.03,-650.1 232.32,-210.3 455.05,-424.34 695.96,-612.83 236.67,-193.13 468.18,-382.83 695.45,-568.48 232.83,-178.89 467.17,-345.05 692.22,-512.02 441.72,-341.62 901.92,-609.39 1302.83,-883.33 418.48,-246.36 805.45,-479.7 1147.27,-661.82 281.21,-140.71 520.81,-267.68 741.21,-376.06 111.11,770.2 278.28,1663.74 524.44,2553.23l0.1 0.2c-8083.13,6922.32 -9849.8,12081.72 -8987.17,18561.01 -298.59,957.98 -587.58,1975.45 -861.11,3041.21 -4146.46,16152.63 -541.21,-6548.79 1313.13,-13176.06zm-2706.36 -472.73c-257.58,306.97 -476.26,713.13 -652.93,1215.76 -501.41,1426.26 -829.9,1717.78 -2120.1,1881.41 -415.96,52.73 -858.79,24.14 -1285.45,-69.29 192.32,-1011.41 474.75,-2012.73 848.18,-3003.03 2336.16,-6193.23 7728.08,-10508.18 11772.42,-12407.17 593.74,207.78 1229.09,343.03 1897.98,399.39 -80.2,42.22 -166.46,87.07 -262.83,137.37 -263.74,143.54 -592.93,349.19 -962.53,568.08 -362.93,228.38 -747.07,498.28 -1173.03,792.12 -403.64,318.08 -865.25,634.14 -1301.21,1022.42 -222.02,190.71 -454.34,381.92 -682.93,585.35 -221.92,209.8 -448.99,423.64 -680,641.82 -235.15,212.42 -451.21,451.21 -675.45,685.86 -219.8,239.6 -460.1,465.15 -666.77,723.23 -212.53,251.82 -427.88,505.76 -643.33,759.9 -212.53,257.17 -403.84,531.21 -606.16,795.45l-299.39 400.2 -273.84 415.35c-180.4,276.77 -359.39,552.83 -537.58,826.87 -308.79,574.04 -655.76,1114.34 -896.06,1683.03 -129.19,279.39 -256.36,554.85 -380.4,823.33 -103.03,277.37 -203.84,547.68 -301.72,812.12 -42.73,103.64 -81.31,207.27 -116.87,310.4zm-5525.05 2385.15c-214.14,-158.38 -395.45,-337.07 -530.1,-531.31 -413.74,-596.87 -412.53,-750.1 24.04,-2782.32 436.36,-2030.3 437.98,-2210.51 29.19,-3221.92 -229.39,-567.37 -522.42,-1040.3 -858.28,-1416.46 228.69,-353.94 479.19,-711.31 749.7,-1067.98 761.62,-1017.88 1681.92,-2027.37 2674.44,-2964.55 501.72,-463.74 1010.71,-918.48 1538.69,-1336.77 522.83,-423.64 1056.06,-818.28 1584.65,-1181.31 526.57,-365.66 1052.42,-695.56 1559.19,-991.62 506.87,-298.08 998.48,-555.45 1456.36,-782.63 460,-222.83 888.69,-409.8 1270.61,-567.07 387.07,-149.09 723.03,-277.58 993.94,-362.32 98.69,-35.25 193.54,-65.66 284.85,-92.53 448.48,668.59 1007.78,1234.55 1654.14,1687.98l0.1 0c-4170.91,2224.85 -9281.52,6625.76 -11592.12,12754.44 -355.96,943.64 -635.66,1896.16 -839.39,2856.36zm-1626.16 -8244.04c-1439.49,-1293.43 -3479.8,-1013.54 -4784.75,1000.81 -30.71,47.37 -62.63,95.86 -95.05,145.05 3696.97,-6895.35 11085.66,-12004.55 16243.94,-12897.98 71.72,481.62 195.05,952.93 368.79,1406.26 -45.96,18.69 -90.4,36.57 -141.52,57.88 -311.82,121.62 -666.87,283.74 -1070.61,471.41 -399.6,196.06 -843.54,427.17 -1315.35,694.95 -468.18,273.23 -966.97,578.99 -1475.15,925.35 -508.89,346.46 -1032.53,725.96 -1552.63,1141.41 -521.31,412.63 -1043.54,857.58 -1551.11,1329.7 -513.43,467.27 -1002.73,969.6 -1483.23,1478.89 -948.69,1028.18 -1814.04,2121.92 -2516.57,3212.22 -226.26,346.26 -435.35,692.12 -626.77,1034.04zm-8678.38 5949.19c-455.25,506.77 -882.32,955.76 -1244.24,1302.22 -2584.55,2474.04 -4273.74,2553.03 -6015.45,281.11 -575.96,-751.41 -763.74,-1262.12 -763.74,-2077.68 0,-939.7 125.86,-1190.51 961.11,-1915.76 734.34,-637.78 1648.59,-1219.49 2847.88,-1800.71l39.6 20.2c1119.6,561.52 2439.19,858.38 3816.67,858.38 460.71,0 920.81,-33.84 1375.15,-100.71 -418.48,1040.3 -782.63,2195.76 -1016.97,3432.93zm-1655.86 -5294.34c97.37,-36.87 195.96,-73.74 295.86,-110.91 3725.35,-1381.62 5365.76,-2608.99 6294.55,-4709.09 513.94,-1162.02 467.47,-2520.71 -18.48,-3357.07 196.57,-337.37 386.97,-666.36 572.42,-987.27 2037.78,-3520.51 3433.13,-5929.09 5616.46,-7387.47 123.43,-70.4 234.95,-141.52 335.25,-213.43 2088.79,-1256.26 4908.28,-1711.72 9579.49,-1491.52l206.67 567.47 0.1 0c-168.59,271.72 -317.68,549.9 -452.73,829.9 -430.91,-68.99 -1004.24,-106.16 -1670.3,-76.57 -1390.4,53.23 -3179.6,404.44 -4832.93,1078.59 -823.84,339.49 -1614.75,751.52 -2286.67,1230.3 -340.4,232.53 -641.92,490.71 -919.39,741.21 -269.6,259.49 -508.99,516.97 -705.56,771.52 -197.98,253.94 -356.36,501.01 -482.63,725.25 -59.19,113.84 -115.45,220.91 -166.57,318.89 -43.03,102.12 -82.63,195.86 -117.58,280.1 -76.67,166.36 -104.44,308.38 -138.08,399.49 -25.56,80.81 -40.91,128.99 -44.44,140.1 5.05,-10.4 26.26,-56.57 60.51,-134.55 45.25,-86.87 88.28,-222.93 184.04,-379.6 43.74,-78.59 93.43,-166.16 146.67,-260.81 61.52,-91.11 127.98,-188.99 199.39,-293.23 148.28,-204.24 329.49,-425.86 546.97,-647.88 217.07,-224.34 474.85,-444.44 758.89,-663.23 291.41,-209.19 604.04,-422.32 951.62,-606.57 685.76,-383.64 1475.15,-691.31 2283.54,-926.77 1620.71,-466.57 3329.49,-609.39 4552.02,-524.55 476.87,29.7 874.95,91.11 1174.34,159.49 -154.95,539.7 -250.51,1084.14 -284.85,1624.44 -6020.51,923.84 -13674.14,6780.3 -17384.65,13373.33 -1288.08,615.45 -2840.91,795.25 -4253.94,530.4zm3155.66 -8235.86c-993.33,757.58 -2166.26,2070.2 -3626.67,4016.46 -116.57,155.25 -230.61,305.15 -342.83,450.91 -26.97,7.47 -54.04,14.75 -80.91,21.72 -1045.05,269.19 -2023.03,161.41 -2901.52,-320.91l-1954.95 -1074.44 194.24 2129.49c92.42,1016.06 494.85,1934.95 1168.18,2703.74 -1056.26,564.34 -2172.12,724.65 -3635.86,654.85 -2194.44,-104.75 -3235.15,-660.1 -4434.14,-2365.76 -1093.43,-1555.45 -1409.29,-2697.88 -1299.49,-4699.39 80.91,-1474.65 217.98,-1903.64 913.03,-2853.94 972.53,-1330 2737.58,-2449.9 4699.49,-2982.42 800.91,-217.37 3270.81,-483.64 5638.08,-607.88l171.92 -9.19 485.05 1113.33c776.26,1781.72 2298.18,3109.6 4175.05,3642.02 275.15,77.98 552.42,138.79 831.31,181.41zm-5667.88 6460.2c-110.71,112.63 -220.2,219.9 -328.89,322.22 -118.89,-132.53 -224.95,-271.62 -317.47,-416.36 212.83,43.43 428.48,74.85 646.36,94.14zm7750.61 -12353.33c1122.53,-271.41 2369.09,-626.97 3938.08,-1103.64 -1016.16,1286.57 -1948.89,2846.77 -3014.24,4681.92 -931.31,543.64 -2141.31,683.13 -3274.65,362.22 -855.35,-243.64 -1591.52,-708.79 -2155.96,-1351.82l40.2 0c2067.78,-0.4 3435.15,-1086.46 4466.57,-2588.69zm8465.56 -4610.1c-339.19,-585.66 -1116.46,-1182.22 -1831.62,-1321.82 -369.49,-72.12 -2026.57,-242.83 -3617.98,-387.37 483.13,-978.89 1124.34,-2059.49 1947.17,-3040.51 860.2,436.57 1804.34,845.96 2487.37,1071.11 -108.69,97.17 -208.69,196.87 -307.58,289.09 -211.01,229.09 -391.41,446.36 -525.76,655.45 -148.28,200.1 -233.74,398.89 -324.85,548.48 -141.11,319.6 -220.71,502.53 -220.71,502.53 0,0 101.52,-171.21 279.6,-472.02 109.6,-137.98 214.75,-320.81 382.83,-498.89 154.75,-186.26 354.14,-376.16 579.8,-569.9 121.21,-88.38 241.72,-184.95 374.55,-275.56 39.9,-22.73 79.19,-46.77 118.69,-71.21 1567.47,450.3 1701.62,444.95 2770.51,59.29 606.87,-218.99 1066.26,-484.34 1381.92,-812.22 1400.51,170 2715.35,658.48 3547.58,1185.86 474.75,287.78 781.31,592.02 892.42,774.24 1.41,2.73 3.64,5.45 5.96,8.99l484.75 1333.84c-3742.93,-130 -6386.26,209.6 -8424.65,1020.61zm-10828.48 -5550.1c214.14,-594.14 713.03,-1032.53 1445.35,-1218.89 455.05,-115.86 870.2,-158.18 1316.57,-106.16 -811.52,700.81 -1718.28,1196.57 -2761.92,1325.05zm4777.07 -617.07c355.56,181.72 748.69,400.81 1190.91,660.51 -518.99,638.59 -968.48,1306.36 -1354.34,1962.42 -838.38,29.8 -2228.99,-25.25 -3212.73,-415.25 1321.62,-412.32 2423.64,-1223.94 3376.16,-2207.68zm9998.28 1056.87c188.99,-692.73 -0.71,-1584.65 -555.15,-2747.88 1536.97,152.12 3168.79,757.07 4878.89,1811.11 -529.49,423.13 -865.45,679.8 -877.88,689.49l-426.46 326.46 213.23 586.36c-924.44,-358.89 -2054.75,-609.09 -3232.63,-665.56zm-1406.57 -4267.78c-459.09,-704.24 -1001.01,-1393.54 -1585.25,-2027.07 234.04,-85.96 492.12,-187.37 774.34,-283.84 312.63,-64.95 642.63,-162.32 998.99,-214.65 362.93,-23.43 736.87,-99.39 1129.8,-63.43 169.7,8.89 341.01,5.05 513.13,20 1142.93,920.81 2156.06,1239.6 2946.97,916.36l18.99 9.7c181.82,81.41 342.53,200.71 509.8,299.49 165.66,102.73 331.52,199.39 478.99,318.08 150.4,111.92 298.69,221.52 443.94,330 135.86,117.88 268.08,233.84 397.37,346.26 265.05,216.57 471.01,465.76 683.64,669.39 184.04,225.66 371.62,429.29 502.42,611.31 113.13,165.05 211.01,291.92 297.27,423.94 -401.72,346.26 -790.2,674.04 -1150.3,973.54 -2428.28,-1572.22 -4759.6,-2352.32 -6960.1,-2329.09zm-1686.57 -2136.06c-534.55,-568.89 -1102.02,-1089.9 -1672.32,-1532.83 707.17,-605.25 1633.64,-1180.1 2722.63,-1568.59 243.13,330.1 518.38,668.59 834.04,1039.9 367.17,431.92 726.57,812.73 1075.96,1141.41 -411.11,12.53 -795.15,129.7 -1161.52,194.65 -366.57,95.15 -698.89,232.53 -1009.29,333.84 -293.74,137.07 -555.66,275.66 -789.49,391.62zm-8643.84 -7809.9c-291.82,-581.21 -554.14,-1204.34 -788.99,-1872.83 -481.41,-1370 -594.24,-2206.06 -588.08,-4358.99 6.46,-2361.21 84.44,-2821.11 685.35,-4049.9 1498.69,-3063.94 4471.01,-3148.99 6399.29,-183.33 618.18,950.61 805.05,1760.81 1508.18,6533.84 157.78,1071.62 298.99,1989.7 434.85,2787.68l-195.15 107.37c-1543.84,849.39 -3001.52,1651.21 -4600,1651.21 -449.9,0 -885.86,-61.41 -1334.34,-187.78l-1521.11 -427.27zm8023.43 791.41c249.39,1109.8 516.57,1917.17 871.62,2628.38 -479.7,186.06 -931.31,402.02 -1351.31,637.98 -676.77,-121.41 -2571.11,-537.47 -4182.12,-1603.03 1715.25,-121.41 3213.13,-872.83 4661.82,-1663.33zm7876.36 6877.98c518.89,-645.86 551.11,-1401.72 151.62,-2668.18 1723.84,785.96 3359.09,2151.62 4841.62,4054.65 -439.6,432.12 -902.63,865.45 -1367.17,1285.76l0.1 -0.1c-83.03,-93.13 -175.86,-195.25 -270.2,-300.81 -192.73,-210.61 -422.73,-409.19 -666.67,-643.94 -266.57,-206.97 -530.91,-456.06 -855.86,-668.59 -158.59,-109.8 -320.51,-221.52 -487.78,-336.87 -174.55,-102.22 -354.24,-206.36 -535.45,-312.53 -177.37,-111.82 -374.65,-200.71 -571.01,-294.75 -80.71,-36.26 -159.49,-75.76 -239.19,-114.65zm-242.02 -4423.13c-73.84,-436.87 -133.13,-873.64 -165.35,-1244.55 -104.24,-1200.51 -64.55,-1782.02 330.61,-3057.17 1836.26,310 3707.68,1051.11 5276.06,2130.71 117.27,676.26 186.36,1335.76 188.48,1901.72 2.53,696.77 172.73,1444.75 398.28,1748.59 522.22,704.75 1967.68,1039.6 3106.97,867.17 241.52,624.65 423.43,1309.39 520.71,2057.47 -638.28,-215.96 -1305.76,-408.99 -2002.53,-577.37l-495.05 -120.1 -315.66 380.81c-164.85,197.98 -343.23,401.62 -531.01,607.98 -2162.12,-2696.16 -4377.17,-4054.55 -6311.52,-4695.25zm630.71 -5711.92c79.39,-245.76 151.62,-482.73 216.16,-711.52 591.31,-398.48 1413.64,-771.82 2542.73,-973.74 232.02,404.75 508.28,869.9 837.47,1430.4 259.19,441.62 508.69,1058.48 723.54,1749.29 -1357.98,-713.84 -2842.53,-1223.64 -4319.9,-1494.44zm614.24 -3010.2c54.55,-1768.79 -613.94,-3289.49 -2175.56,-5656.87 -1424.55,-2159.7 -1562.73,-3100.4 -598.38,-4075.76 1200.3,-1214.04 2923.94,-1693.64 3544.85,-986.77 197.07,224.44 269.09,1817.88 226.67,5024.95 -40,3030.51 -87.88,4157.17 306.67,5298.18 -477.17,108.48 -910.81,243.23 -1304.24,396.26zm9271.41 10328.08c295.66,-359.49 728.99,-943.23 1144.44,-1550.1 498.99,-728.89 1167.47,-1482.12 1718.79,-1955.86 1459.6,2975.66 2108.79,6623.54 2058.69,9635.66 -1109.39,-1066.06 -2506.46,-1971.52 -4155.45,-2698.08 -69.19,-1290.2 -351.92,-2430.3 -766.46,-3431.62zm4218.38 -4300.71c399.9,-126.26 810.3,-130.4 1516.16,-75.05 226.77,17.58 424.65,38.28 603.03,65.56 -377.78,1017.37 -654.55,2105.25 -857.07,3210.81l0.1 0c-333.43,-1110.2 -752.83,-2190.71 -1262.22,-3201.31zm3560.1 603.94c122.63,92.63 252.53,198.48 394.55,319.8 818.99,699.09 1252.53,889.6 2025.96,889.6 922.93,0 1906.16,-373.33 2708.28,-930.1 -2037.58,2096.36 -3276.16,4805.96 -3553.23,7802.73 -924.55,452.53 -1903.84,1068.18 -2855.35,1905.25 36.26,-3616.06 301.31,-7220.3 1279.8,-9987.27zm6181.72 -690.1c394.44,-494.24 635.25,-1032.42 635.25,-1546.67 0,-390.91 -347.27,-1458.48 -771.82,-2372.22 -61.52,-132.73 -119.9,-260.71 -175.25,-384.95 3481.41,-314.75 5230.1,748.18 6023.33,1520.71 -1963.74,426.46 -3899.8,1336.16 -5545.15,2647.88 -55.96,44.55 -111.31,89.7 -166.36,135.25zm-954.85 -6097.88c-255.45,-1116.97 -95.66,-2031.72 426.97,-3509.09 1401.82,-3962.32 2657.17,-5063.43 5776.26,-5064.75 2593.84,-1.31 4374.75,1168.59 4826.57,3170.81 302.32,1339.6 82.53,2334.34 -1168.38,5287.68 -441.31,1042.02 -815.05,1966.77 -1123.54,2794.04 -31.62,1.21 -63.23,2.42 -94.95,4.14 -724.24,-967.68 -2642.93,-2796.16 -6782.93,-2796.16 -593.23,0 -1217.78,38.28 -1860,113.33zm8092.42 4586.16c-524.55,1783.94 -598.99,2991.01 -252.22,3965.56 -2874.04,696.06 -5410.1,2444.85 -7243.43,5082.42 -517.07,48.89 -1450.4,184.14 -2588.08,558.89 555.66,-3554.65 2499.8,-5804.95 4123.03,-7099.39 1731.62,-1380.61 3888.69,-2269.19 5960.71,-2507.47zm584.44 5300.61c97.58,105.96 201.41,211.01 312.22,315.86 518.59,489.9 1426.26,1027.58 2017.27,1194.85 1282.32,363.03 2292.42,134.14 3683.54,-1000.1 2460.3,889.39 4413.43,2525.05 5164.75,4367.17 -751.11,447.68 -1597.88,794.44 -2502.93,1002.22 -704.65,161.92 -1833.33,554.24 -2507.88,872.12 -8.89,4.14 -17.27,8.59 -26.06,12.73 -27.17,-7.37 -54.34,-14.95 -81.72,-22.02 -2874.44,-753.64 -6046.87,-58.69 -9433.23,2056.36 -351.31,-330.51 -719.39,-689.29 -1080.1,-1055.05 28.48,-50.3 119.8,-214.55 268.79,-481.01 89.8,-149.8 198.59,-283.03 322.02,-467.88 135.15,-177.37 318.38,-383.03 512.02,-600.4 216.77,-200 431.52,-440.91 708.38,-647.88 135.66,-105.56 265.76,-227.78 417.58,-328.48 151.21,-102.93 305.96,-207.68 463.84,-313.94 156.26,-110.4 332.93,-191.82 503.84,-291.92 170.81,-100.81 346.97,-194.55 535.35,-271.21 186.16,-79.39 370.2,-172.53 563.84,-244.24l590 -198.79c195.76,-75.25 403.13,-101.31 605.45,-155.35 202.93,-48.18 405.96,-97.78 611.92,-115.15 206.77,-25.56 411.21,-51.92 613.43,-76.57 204.44,-3.33 406.06,-6.77 604.65,-10.3 100.2,-2.22 198.89,-3.54 297.27,-4.95 97.17,9.09 193.64,17.98 289.29,26.87 191.41,18.79 379.6,37.17 562.22,55.25 362.32,56.57 699.7,145.66 1018.08,209.8 306.06,98.08 584.14,198.79 834.04,283.54 254.75,75.25 446.87,201.62 621.52,274.65 320.61,153.94 512.73,246.46 535.25,256.77 -21.31,-12.93 -200.81,-124.85 -501.72,-312.02 -165.05,-90.91 -346.87,-239.29 -593.03,-342.93 -241.01,-111.62 -512.63,-244.95 -814.95,-378.08 -314.85,-99.9 -652.93,-228.38 -1023.84,-327.78 -188.38,-38.48 -382.02,-78.69 -579.9,-119.19 -99.29,-20.91 -200,-40.81 -301.72,-60.81 -103.54,-9.7 -207.98,-19.39 -312.53,-28.28 -212.42,-19.49 -427.17,-37.98 -644.75,-56.67 -219.19,3.43 -441.11,7.58 -664.55,11.62 -225.76,-4.04 -449.19,24.95 -674.04,53.94 -224.14,33.84 -457.27,42.22 -677.78,98.69l-668.28 149.09c-221.11,56.67 -433.84,134.55 -649.09,201.52 -217.68,62.83 -424.34,145.45 -625.86,235.25 -200.91,89.7 -409.7,162.83 -597.47,264.95 -189.8,100.81 -376.87,199.6 -558.79,296.06 -183.94,96.06 -346.87,215.35 -514.75,319.6 -340.3,202.12 -620.71,447.78 -898.28,655.56 -260,230.3 -492.22,439.49 -695.25,650.71 -193.43,220.1 -381.92,426.46 -499.6,581.01 -19.7,27.68 -34.24,48.28 -52.42,73.94 -723.03,-808.08 -1270.1,-1530 -1350.4,-1907.37 2059.19,-3059.39 4644.44,-4283.43 6874.34,-4701.72zm7409.7 -787.27c82.32,-83.94 166.06,-170 251.11,-258.69 536.87,-558.89 1014.44,-1020.61 1449.39,-1394.04 539.9,165.05 1114.95,293.43 1741.21,365.25l0 0c-1187.78,1006.87 -2607.88,1243.33 -3441.72,1287.47zm6349.8 -1838.59c93.64,196.46 181.11,442.53 281.41,761.72 220.3,700.4 400.3,1540.81 400.3,1867.37 0,1299.6 -638.28,2593.43 -1689.49,3652.73 -585.66,-1145.96 -1512.93,-2208.48 -2724.95,-3111.41 1448.89,-536.26 2602.73,-1449.09 3438.89,-2722.32l293.84 -448.08zm-9220.81 10595.56c-541.31,688.99 -656.06,1452.42 -405.76,2148.59 -91.01,-9.29 -182.02,-17.78 -273.33,-25.86 -1793.54,-116.67 -3590.91,225.56 -4871.72,767.98 -79.7,32.42 -150.61,68.99 -226.46,103.54l29.29 -404.34 -375.45 -238.08c-148.18,-93.84 -363.64,-260.81 -622.22,-476.97 2430.61,-1457.88 4692.02,-2086.36 6745.66,-1874.85zm1.31 2863.94c711.11,887.68 2104.55,1540 4009.19,1558.79 66.57,63.94 128.38,127.68 185.15,191.11 182.42,175.25 296.36,361.52 414.75,498.99 199.39,297.98 308.08,473.94 308.08,473.94 0,0 -85.45,-185.05 -250.3,-506.57 -101.62,-149.6 -195.76,-352.53 -358.59,-550.61 -25.15,-35.56 -51.41,-71.31 -78.99,-107.17 638.59,-10.1 1252.12,-91.01 1862.73,-252.12 259.8,413.54 504.14,855.25 732.12,1324.85 468.89,964.75 855.86,2166.06 1266.36,3437.88 907.07,2812.73 1845.25,5721.21 3930.4,6447.17 162.12,55.96 326.46,97.88 493.64,125.56l0 0c-936.16,287.07 -2096.67,57.27 -3562.42,-286.36l-165.76 -38.69c-3733.33,-6307.07 -6060.81,-9277.07 -14993.74,-9409.6 56.26,-297.27 111.01,-594.75 162.12,-885.35 6.67,-9.7 11.82,-13.84 16.06,-20.61 5.25,-8.28 7.27,-16.67 13.23,-29.09 17.47,-21.41 35.76,-43.43 56.06,-66.97 70.91,-96.57 204.04,-218.08 368.89,-351.21 171.72,-131.11 383.54,-275.35 637.58,-413.94 1004.75,-569.39 2612.32,-1074.65 4258.38,-1141.41 231.11,-3.94 463.94,-6.36 695.05,1.41zm7742.73 674.75c527.47,-263.64 1067.17,-590.3 1632.02,-985.15 153.33,115.56 312.63,219.7 477.98,312.42 200.91,113.13 400.2,202.12 595.05,272.42l0 0c-868.79,293.54 -1944.44,387.47 -2705.05,400.3zm3240.3 -2196.16c3908.28,-2968.28 8410.91,-5974.65 10281.31,-6845.86 3216.97,-1498.69 7608.08,-2073.13 10697.27,-1399.49 3187.17,695.25 4421.11,3731.52 2779.19,6838.38 -859.7,1626.46 -1111.62,1698.59 -4164.14,1190.91 -4895.76,-813.64 -9167.47,-448.79 -13430.3,1146.87 -3332.53,1247.78 -6904.44,3045.96 -7914.24,3959.39 -113.54,-307.58 -231.41,-609.39 -354.04,-898.69 1754.04,-161.31 3797.58,-707.17 4633.74,-2288.18l1261.21 -2383.43 -2662.63 828.08c-2.02,0.71 -506.46,144.04 -1127.37,-147.98zm385.45 10783.03c749.19,563.43 1143.54,1010.4 1352.22,1526.06 -7.68,-2.53 -15.45,-5.05 -23.03,-7.78 -494.14,-172.12 -933.74,-748.08 -1329.19,-1518.28zm245.86 5351.01c-211.01,166.16 -451.11,336.77 -722.22,516.87 -38.99,-60.61 -76.67,-121.11 -112.22,-181.41 -78.18,-134.04 -156.36,-266.57 -233.74,-396.87 349.7,42.02 671.72,62.02 980.61,62.02 29.39,0 58.59,-0.2 87.58,-0.61zm-2231.21 1720.51c-696.16,707.17 -1031.11,1401.21 -1018.28,2111.01 -3933.74,-4870.91 -9586.57,-8615.15 -14248.59,-9153.94 -9.49,-553.43 -75.96,-1116.57 -204.44,-1681.72 40.2,-14.44 81.01,-28.99 123.43,-42.12 138.79,-18.59 275.25,-66.26 494.44,-97.37 232.93,-15.15 488.48,-68.18 790.1,-55.86 148.99,-0.71 304.55,-0.71 465.25,-2.02 163.54,13.23 332.32,26.16 505.35,39.29 349.09,13.74 713.54,95.25 1096.26,144.95 373.94,89.6 772.63,150.51 1159.6,276.77 194.95,57.88 394.34,110.3 591.01,174.55l581.92 213.23c198.59,65.45 385.56,151.82 573.23,237.37 187.07,86.36 379.09,164.34 560.3,256.77 349.7,201.31 722.12,370.51 1032.63,597.47 161.92,107.68 319.7,213.33 475.25,316.77 143.94,117.27 284.14,232.02 421.41,343.03 287.07,214.55 506.87,462.22 723.74,682.42 230.1,211.92 374.65,451.82 531.62,648.79 73.03,100.51 149.09,192.32 207.58,282.73 51.01,95.25 98.48,181.52 141.62,260.2 172.32,316.16 270,496.87 270,496.87 0,0 -75.86,-190.51 -209.49,-523.84 -33.64,-84.14 -70.81,-177.27 -111.62,-278.79 -48.28,-97.17 -111.82,-197.27 -174.75,-307.68 -133.54,-215.45 -254.75,-480.3 -461.41,-720.51 -194.34,-249.09 -393.54,-532.02 -661.01,-783.33 -128.48,-131.72 -260.71,-266.06 -395.76,-404.24 -148.28,-124.14 -299.49,-252.63 -453.54,-381.62 -298.69,-273.84 -659.39,-489.9 -1004.85,-742.42 -178.99,-117.47 -368.89,-220.81 -555.05,-332.53 -186.26,-111.01 -373.94,-224.34 -572.63,-316.06l-590.1 -291.41c-199.29,-90.2 -403.13,-168.89 -603.74,-253.13 -397.37,-178.69 -814.55,-291.92 -1208.89,-431.31 -406.67,-100.2 -793.13,-229.09 -1180.1,-289.09 -192.83,-35.15 -380.51,-69.6 -560.81,-103.54 -186.26,-20.2 -365.86,-38.48 -538.28,-57.37 -342.53,-48.79 -677.78,-27.58 -967.68,-35.76 -303.03,8.18 -613.43,62.73 -846.46,93.23 -28.48,6.16 -51.82,11.62 -77.27,17.78 -78.08,-195.86 -161.52,-391.82 -254.14,-585.66 58.38,-264.34 156.26,-724.04 269.49,-1271.92 8883.23,63.33 10386.16,2618.89 14726.26,10025.96 271.21,462.32 552.22,942.73 845.86,1440.1 94.24,159.7 198.89,321.31 312.53,483.94zm1037.37 5025.66c364.04,218.59 785.45,428.28 1275.86,637.68 812.42,347.17 1525.25,576.57 2234.14,697.17 -941.72,33.54 -1934.95,-49.39 -2892.53,-256.97 -194.65,-362.42 -401.11,-721.82 -617.47,-1077.88zm2263.54 3812.22c-78.38,-218.38 -160.81,-436.97 -248.28,-655.86 10571.11,883.54 2533.03,1922.53 1337.27,2225.15 -3222.83,815.05 8201.62,5962.53 -1088.99,-1569.29zm-2411.11 -788.28c-833.13,-196.36 -1567.37,-274.65 -2072.83,-185.05 -442.53,78.38 -971.31,373.33 -1471.62,775.25 -98.08,-318.48 -223.74,-659.19 -370.4,-1019.49 -206.57,-469.19 -440.4,-977.07 -738.99,-1488.38 -289.19,-515.56 -626.67,-1044.14 -1004.24,-1572.73 -749.19,-1061.31 -1662.83,-2120 -2655.96,-3110.2 -501.82,-489.8 -1013.74,-972.93 -1546.77,-1419.49 -528.08,-451.21 -1069.09,-875.05 -1608.89,-1267.47 -537.47,-393.94 -1077.17,-752.93 -1600.81,-1078.59 -523.64,-326.46 -1034.85,-612.22 -1515.35,-866.87 -482.83,-249.09 -936.87,-461.41 -1344.44,-642.32 -286.26,-119.49 -539.7,-220.81 -779.29,-312.63 195.25,-456.77 339.6,-935.76 430.91,-1429.19 5549.49,654.95 12688.89,6376.87 15940.91,12905.76 114.95,230.61 227.88,468.08 337.78,711.41zm-3678.99 701.62c-717.58,610.4 -1353.13,1426.26 -1555.25,2113.94 -596.46,2028.69 -192.73,3286.77 1919.6,5981.52 1297.68,1655.66 2297.07,2995.56 3064.55,4140.2 -330.3,551.21 -712.22,1101.21 -1152.53,1647.88l0 0c-1415.66,1757.68 -2664.85,3385.45 -3763.03,4896.97 -285.56,-3059.19 -536.16,-5051.31 -880.1,-6477.88 393.54,-2500 150.81,-5056.87 -731.11,-7649.29 -2092.32,-6149.19 -7754.24,-11638.69 -12791.92,-14394.04 853.74,-461.82 1576.77,-1104.14 2148.59,-1899.8 262.93,74.65 577.68,179.6 939.9,303.03 388.59,142.02 825.25,311.82 1294.65,516.06 467.47,209.9 970,447.17 1489.19,724.55 519.29,276.67 1059.7,585.96 1602.32,929.6 544.04,342.22 1093.94,715.45 1635.15,1117.78 546.26,397.68 1075.05,832.42 1596.46,1275.25 1032.63,897.07 1996.46,1869.39 2802.02,2856.97 406.97,490.51 772.63,984.55 1092.63,1470.4 327.88,481.01 592.22,961.11 828.99,1408.38 180.1,366.26 336.36,713.94 459.9,1038.48zm4543.33 14054.44c789.29,1453.33 1133.23,2617.17 1261.31,3908.38 167.78,1691.31 -142.02,2343.74 -1433.64,3018.89 -1309.7,684.55 -2393.94,855.05 -3557.37,558.99 -577.78,-146.97 -1050.51,-382.53 -1413.43,-701.31 1227.27,-1736.87 2692.42,-3672.93 4434.04,-5835.25 250.71,-311.21 486.77,-628.08 709.09,-949.7zm-8316.16 -4795.05c-89.9,-110.2 -183.94,-219.09 -282.42,-328.08 -1092.63,-1205.96 -2656.36,-1896.06 -4210.71,-1949.8 -27.98,-262.53 -54.55,-578.38 -133.74,-928.89 -81.92,-372.53 -132.93,-802.53 -264.34,-1255.96 -62.83,-227.07 -128.59,-463.74 -196.46,-708.69 -34.24,-122.73 -69.29,-247.68 -104.44,-373.94 -44.65,-123.54 -89.9,-249.8 -135.76,-377.47 -92.83,-255.25 -187.78,-518.18 -284.95,-785.96 -95.66,-269.9 -230,-530.71 -346.97,-804.04 -226.97,-551.31 -531.52,-1090.2 -827.37,-1645.86 -145.96,-279.39 -328.59,-540.91 -493.64,-814.95 -167.98,-271.92 -335.96,-546.36 -530.2,-803.84 -188.48,-262.22 -376.87,-524.44 -564.55,-785.96 -203.84,-250.51 -406.67,-499.7 -609.09,-747.47 -194.95,-253.13 -417.68,-481.52 -629.39,-714.04 -216.26,-229.09 -416.36,-468.59 -643.43,-676.36 -222.12,-213.94 -439.7,-423.74 -652.93,-629.29 -218.28,-201.52 -446.26,-385.86 -660.2,-572.12 -422.12,-380.71 -874.95,-683.84 -1268.59,-991.52 -420.61,-278.89 -795.25,-540.3 -1158.18,-753.64 -366.57,-204.24 -695.86,-402.22 -955.15,-529.29 -122.83,-59.29 -232.22,-111.72 -329.39,-158.18 31.31,-303.43 54.65,-576.67 70.1,-801.52 398.69,-27.78 779.09,-89.9 1150.91,-168.48 4117.47,1923.84 10867.68,7164.85 13244.75,14152.53 475.05,1396.57 746.97,2782.32 816.16,4152.83zm-4565.35 -2279.9c-702.83,-15.45 -1402.32,99.8 -2053.74,356.87 -443.23,175.05 -787.58,369.29 -1046.87,625.25 -939.29,-3929.09 -3419.19,-7818.99 -8328.69,-12352.42 227.17,-736.87 392.12,-1494.75 511.11,-2199.19 232.93,101.41 477.68,227.78 775.66,364.95 332.22,163.64 706.06,386.46 1112.93,614.85 386.97,261.01 833.94,512.12 1257.47,843.54 214.85,160.61 443.33,318.48 664.65,493.94 216.87,180.81 438.79,364.95 664.55,552.73 233.03,181.41 438.89,396.16 662.53,599.6 219.7,207.78 450.51,411.52 655.76,639.09 211.72,224.24 424.95,449.09 639.6,675.56 199.39,237.98 400.2,477.47 601.01,716.97 207.37,235.25 389.29,487.78 571.82,738.99 179.7,252.63 378.28,494.04 539.8,753.54 328.69,517.68 665.96,1021.31 928.79,1541.62 134.44,258.18 287.88,504.55 401.01,760.61 115.45,255.25 228.59,505.66 338.89,748.48 55.56,122.32 109.6,243.03 162.83,360.91 44.55,122.22 87.78,242.32 130.81,359.6 86.16,235.96 168.59,465.25 248.99,683.74 164.24,437.58 247.58,857.17 357.88,1220.81 104.55,338.18 155.56,643.54 203.23,900zm-4449.8 8146.26c-535.76,319.8 -1237.17,568.08 -1771.31,584.55 53.74,-280.4 101.41,-570.2 144.14,-868.48 91.31,-668.48 151.92,-1380.61 148.28,-2119.09l0.1 0c-0.81,-185.76 -1.52,-372.02 -1.52,-558.99 -11.82,-187.78 -23.43,-376.16 -35.25,-565.86 -14.34,-381.52 -72.22,-763.13 -117.47,-1150.3 -111.01,-770.3 -269.49,-1550.51 -494.55,-2313.84 -431.41,-1533.94 -1093.84,-3005.35 -1847.58,-4316.26 -386.36,-650.2 -778.38,-1271.82 -1194.65,-1833.54 -412.02,-564.44 -826.06,-1084.04 -1237.07,-1544.44 -750.81,-856.36 -1472.42,-1516.06 -2051.52,-1975.56l21.21 -23.43c334.55,-369.29 618.59,-818.48 862.42,-1311.11 6987.27,6613.23 8476.46,11683.43 7574.75,17996.36zm-2077.68 554.75c-1383.03,-325.15 -3294.14,-3215.05 -4369.49,-6686.77 -596.57,-1926.36 -1177.68,-2766.46 -2136.46,-2967.68 -512.83,-1171.82 -1151.92,-2233.54 -1943.64,-3127.88 1329.09,-997.68 2508.59,-1834.85 2529.8,-1850l218.28 -154.65c126.36,119.49 253.33,242.93 382.63,374.04 411.11,407.98 831.92,875.15 1255.35,1386.46 427.17,508.48 835.56,1076.36 1241.62,1674.75 794.44,1204.85 1516.06,2573.23 2022.22,4018.89 262.83,719.8 460.71,1459.49 615.56,2196.57 66.36,369.8 146.77,736.16 183.33,1103.43 22.53,182.83 45.96,364.85 69.39,546.57 11.62,181.52 22.63,361.52 34.24,541.01 49.6,716.16 34.24,1413.23 -13.84,2072.22 -23.54,298.59 -52.83,590.4 -88.99,873.03zm-8148.48 -9534.95c-728.48,268.59 -1170.4,878.79 -1509.39,1980.4 -668.08,2171.41 -401.11,4186.67 1116.77,8433.13 953.74,2667.58 1370.71,3793.64 2181.21,5496.87 -261.11,3301.52 -781.52,6764.24 -1496.87,10196.26 -1040.81,-1848.38 -1374.24,-3468.99 -1633.33,-7625.45 -283.03,-4537.88 -1065.35,-8667.17 -2341.41,-12366.16l6.36 -163.84c45.45,-1354.55 102.22,-2617.88 149.09,-3701.52 64.95,-1344.24 116.77,-2409.7 145.96,-3025.05l70.2 -63.54c465.25,-423.03 1107.78,-945.45 1792.22,-1478.18 576.16,644.24 1082.83,1418.69 1519.19,2317.07zm3108.18 18560.2c166.46,326.67 345.45,676.87 539.39,1055.56 1334.04,2606.36 1762.83,3706.26 1854.14,4757.17 155.86,1796.97 -290.2,3027.37 -1311.01,3615.45 -1082.42,623.64 -1866.77,617.47 -2660.71,-147.07 690.4,-3084.04 1231.11,-6219.9 1578.18,-9281.11zm-7933.74 -15350c-165.56,-372.02 -336.87,-738.89 -513.84,-1100.81 -1050.51,-2148.18 -1477.07,-2663.13 -2352.32,-2710.3 395.15,-631.62 838.48,-1254.14 1334.24,-1876.16 585.66,427.17 1069.8,829.29 1439.49,1157.98 6.46,307.68 32.12,1654.75 69.29,3556.46 7.27,310.1 14.95,635.15 23.13,972.83zm-5072.12 -3026.87c-940.91,813.94 -1543.74,2191.31 -1556.67,3813.13 -2.63,338.48 1.31,614.95 22.12,861.62 -580.1,3177.27 -459.49,6888.69 193.84,11653.64 -404.44,50.91 -853.43,76.97 -1343.84,77.17 -2335.86,0.4 -3181.82,-382.32 -3735.56,-1690.51 -566.26,-1337.17 -547.68,-2623.74 158.79,-4922.42 39.39,139.19 80.61,275.15 123.54,407.68 156.36,568.59 376.26,1065.45 537.58,1515.35 200.1,436.16 362.93,820.51 516.16,1128.08 300.91,570.81 482.12,912.32 503.33,952.42 -18.38,-41.52 -176.87,-392.73 -441.92,-977.88 -132.93,-314.75 -270.91,-705.86 -441.72,-1148.89 -131.52,-454.75 -317.68,-957.78 -436.87,-1526.36 -71.92,-281.01 -134.75,-576.77 -189.6,-884.34 85.45,-259.19 178.59,-530.3 279.6,-815.05 1200.51,-3380.61 1369.09,-5707.47 539.19,-7434.24 -16.77,-34.65 -34.04,-69.39 -52.02,-103.84 416.77,-1131.21 951.82,-2207.47 1537.07,-3183.64 379.9,-613.54 763.13,-1196.77 1167.07,-1722.53 347.68,-456.87 693.03,-878.48 1034.85,-1259.39l766.06 267.17c1142.93,397.37 2181.41,926.67 3079.6,1476.06l0 0c-913.84,1151.92 -1662.32,2309.9 -2260.61,3516.77zm-314.24 7453.43c540.81,922.42 1095.25,2017.17 1288.69,2555.25 394.34,1097.68 485.56,3829.39 165.15,4944.24 -117.98,410.2 -447.37,740.2 -965.35,981.31 -455.05,-3322.83 -637.07,-6080 -488.48,-8480.81zm-5612.32 -7423.13c-535.66,-615.45 -1194.85,-1060.3 -1665.15,-1060.3 -892.12,0 -2068.28,1686.06 -3234.24,4448.18 331.82,-4309.39 2540.51,-8194.85 8090,-13060.71 297.27,705.96 661.52,1350.4 1111.41,1846.67l287.07 316.06c-354.24,361.72 -731.01,780.51 -1114.44,1256.57 -390.71,475.56 -780.71,1011.01 -1167.88,1591.21 -391.21,577.47 -755.76,1214.65 -1112.83,1879.19 -452.02,870.71 -862.32,1808.28 -1193.94,2783.13zm24307.07 -27840.1c219.09,-1085.45 461.62,-2371.11 559.39,-3192.22 -1172.02,-962.63 -4692.02,-3987.88 -5456.06,-5981.52 -1349.49,191.11 -4535.05,957.78 -7087.37,4003.74l-683.74 816.36 -591.41 -878.48c-1486.97,-2208.79 -4175.15,-3873.33 -7793.84,-4830.51 -2112.63,2407.07 -5599.8,5208.69 -6813.54,6159.6l1426.16 3919.7 674.14 1852.02 -204.55 301.52c-1429.09,2110.91 -1624.85,4507.58 -522.73,6409.49 944.14,1630.51 2693.33,2566.26 4797.98,2566.26l841.92 -8.99 31.52 718.28c58.28,1344.34 475.96,4969.8 1687.58,6783.33l5426.87 -1973.54 0 -3116.36c-933.23,-708.79 -2621.01,-1962.42 -3774.14,-2665.76l2991.41 0 1565.66 1248.89 1272.83 -1248.89 2447.17 0 -2936.36 2455.35 0 3345.35 4587.68 1845.25c1187.47,-1806.67 1537.27,-5346.57 1570.1,-6660.51l18.38 -731.41 863.84 8.99c2056.57,0 3728.28,-810.91 4708.18,-2282.12 1167.88,-1754.14 1180.3,-4147.88 34.34,-6402.22l-115.35 -225.86 54.75 -246.36c4.34,-18.59 200.1,-903.94 419.19,-1989.29l0 -0.1zm-7909.8 21857.68c-683.54,-710.71 -1566.36,-1786.46 -1823.64,-2596.57l-3205.96 -1289.8 -2908.69 1058.69c-345.45,1037.88 -912.93,1987.27 -1698.79,2831.92 2358.08,1022.73 4202.22,2464.95 5225.35,3372.42 1348.89,-1138.08 3351.21,-2609.29 4411.72,-3376.46l0 -0.2zm7441.72 -21874.95c-24.04,5.45 -48.28,11.01 -72.22,16.57 -1518.38,376.87 -2723.43,2106.16 -4354.75,2628.48 -921.01,295.15 -1768.99,344.95 -2472.93,251.21l80.51 43.94c-1762.22,1152.63 -1632.32,7297.58 -2032.53,7728.89 -988.08,-4378.48 29.19,-8834.14 29.19,-8834.14l5.05 2.73c-26.97,-79.49 -42.32,-158.79 -34.24,-236.77 154.14,-1482.93 4348.89,-3081.11 8851.92,-1601.01l0 0.1zm-17015.25 1702.42c0,0 988.08,4588.28 0,8966.67 -400.91,-431.31 -270.1,-6576.26 -2032.42,-7728.89l70.81 -43.33c-701.82,92.42 -1546.77,42.02 -2463.84,-251.82 -1657.17,-530.71 -2873.84,-2306.97 -4427.17,-2645.15 4503.74,-1480.1 8698.59,118.08 8852.63,1601.01 3.74,34.44 -2.02,68.99 -5.05,104.24l5.05 -2.73z"/>
  <g id="_1744602344048">
   <path class="fil1 str0" d="M141066.46 140596.06l-13240.51 0 0 -16699.6 13240.51 0 0 3339.9 -8946.26 0 0 3220.61 7037.68 0 0 3339.9 -7037.68 0 0 3459.19 8946.26 0 0 3340zm1407.58 -3459.19c4357.88,238.48 7308.08,357.88 8850.81,357.88 365.76,0 656.06,-107.37 870.81,-322.12 214.65,-214.65 322.02,-504.95 322.02,-870.71l0 -2147.17 -5486.97 0c-1670,0 -2882.83,-377.78 -3638.18,-1133.13 -755.45,-755.45 -1133.23,-1968.28 -1133.23,-3638.28l0 -715.56c0,-1670 377.78,-2882.73 1133.23,-3638.18 755.35,-755.45 1968.18,-1133.13 3638.18,-1133.13l8373.64 0 0 3339.9 -7419.49 0c-954.14,0 -1431.31,477.17 -1431.31,1431.41l0 477.07c0,954.24 477.17,1431.41 1431.31,1431.41l4294.24 0c1558.69,0 2703.74,365.76 3435.45,1097.37 731.52,731.72 1097.27,1876.77 1097.27,3435.45l0 1192.83c0,1558.59 -365.76,2703.74 -1097.27,3435.35 -731.72,731.52 -1876.77,1097.37 -3435.45,1097.37 -811.21,0 -1669.9,-15.96 -2576.46,-47.78l-2194.85 -95.35c-1622.32,-79.6 -3300.2,-190.91 -5033.74,-334.04l0 -3220.61zm23403.33 3459.19l-4294.14 0 0 -13359.7 -5009.9 0 0 -3339.9 14314.04 0 0 3339.9 -5010 0 0 13359.7zm7992.02 0l-4652.02 0 6322.02 -16699.6 4771.31 0 6322.02 16699.6 -4652.12 0 -1073.43 -2982.12 -5964.14 0 -1073.64 2982.12zm2147.07 -6083.43l3817.07 0 -1908.59 -5606.36 -1908.48 5606.36zm26123.13 -3220.71l-3339.9 5964.14 -3340 0 -3339.9 -5964.14 0 9304.14 -4294.24 0 0 -16699.6 4532.83 0 4771.31 8826.87 4771.31 -8826.87 4532.83 0 0 16699.6 -4294.24 0 0 -9304.14z"/>
   <path class="fil1 str0" d="M209165.35 123888.89l10019.9 0c1669.9,0 2882.63,377.68 3638.08,1133.23 755.45,755.45 1133.23,1968.18 1133.23,3638.08l0 2385.76c0,1669.9 -377.78,2882.63 -1133.23,3638.08 -755.45,755.45 -1968.18,1133.13 -3638.08,1133.13l-5725.66 0 0 4771.41 -4294.24 0 0 -16699.7zm10496.97 4771.31c0,-954.14 -477.07,-1431.41 -1431.31,-1431.41l-4771.41 0 0 5248.38 4771.41 0c954.24,0 1431.31,-477.07 1431.31,-1431.21l0 -2385.76zm7992.02 11928.38l-4652.12 0 6322.02 -16699.7 4771.41 0 6322.02 16699.7 -4652.02 0 -1073.64 -2982.12 -5964.14 0 -1073.54 2982.12zm2147.07 -6083.54l3817.07 0 -1908.48 -5606.36 -1908.59 5606.36zm11809.09 -10616.16l10019.8 0c1669.9,0 2882.73,377.68 3638.18,1133.23 755.45,755.45 1133.13,1968.18 1133.13,3638.08l0 2147.17c0,1320 -218.59,2345.86 -656.06,3077.37 -437.37,731.62 -1133.23,1216.77 -2087.47,1455.35l2982.12 5248.48 -4652.02 0 -2743.54 -5010 -3340 0 0 5010 -4294.14 0 0 -16699.7zm10496.97 4771.31c0,-954.14 -477.17,-1431.41 -1431.41,-1431.41l-4771.41 0 0 5009.9 4771.41 0c954.24,0 1431.41,-477.07 1431.41,-1431.31l0 -2147.17zm14552.53 11928.38l-8588.38 0 0 -3340 2147.07 0 0 -10019.8 -2147.07 0 0 -3339.9 8588.38 0 0 3339.9 -2147.07 0 0 10019.8 2147.07 0 0 3340zm5129.19 0l-4652.02 0 6322.02 -16699.7 4771.31 0 6322.02 16699.7 -4652.02 0 -1073.64 -2982.12 -5964.14 0 -1073.54 2982.12zm2147.17 -6083.54l3816.97 0 -1908.48 -5606.36 -1908.48 5606.36z"/>
   <path class="fil1 str0" d="M286004.24 104645.15c0,4305.45 -974.04,7432.32 -2921.72,9379.9 -1947.68,1947.68 -5074.34,2921.52 -9379.7,2921.52l-15376.87 0c-4305.56,0 -7432.02,-973.84 -9379.9,-2921.52 -1947.68,-1947.58 -2921.52,-5074.44 -2921.52,-9379.9l0 -19682.12c0,-4305.66 973.84,-7432.12 2921.52,-9379.9 1947.88,-1947.88 5074.34,-2921.62 9379.9,-2921.62l15376.87 0c4305.35,0 7432.02,973.74 9379.7,2921.62 1947.68,1947.78 2921.72,5074.24 2921.72,9379.9l0 19682.12zm-11071.21 -19682.12c0,-2460.4 -1230.2,-3690.71 -3690.4,-3690.71l-10456.46 0c-2460.2,0 -3690.3,1230.3 -3690.3,3690.71l0 19682.12c0,2460.3 1230.1,3690.51 3690.3,3690.51l10456.46 0c2460.2,0 3690.4,-1230.2 3690.4,-3690.51l0 -19682.12zm-48283.33 -20358.99c1312.12,0 2337.37,-820.1 3075.35,-2460.4l3997.98 2460.4c-368.99,1312.12 -861.21,2460.2 -1476.16,3444.34 -1435.15,2419.19 -3300.91,3628.89 -5597.17,3628.89 -861.01,0 -1609.39,-164.04 -2245.05,-492.02 -635.56,-327.88 -1230.2,-676.57 -1783.64,-1045.76 -553.54,-368.89 -1096.97,-717.37 -1630.1,-1045.35 -533.03,-328.28 -1106.97,-492.12 -1722.12,-492.12 -1312.12,0 -2337.17,820.1 -3075.35,2460.2l-3997.98 -2460.2c656.26,-2542.22 1865.76,-4531.11 3628.89,-5966.26 902.22,-738.08 1917.07,-1106.97 3044.75,-1106.97 1127.68,0 2009.09,164.04 2644.65,491.82 635.76,328.08 1230.4,676.67 1783.74,1045.86 553.74,368.89 1096.77,717.47 1630,1045.66 533.13,327.68 1107.17,491.92 1722.22,491.92zm-8610.91 36043.03l9841.11 0 -4920.71 -14454.14 -4920.4 14454.14zm-5535.76 15684.44l-11993.94 0 16299.49 -43054.95 12301.31 0 16299.49 43054.95 -11993.74 0 -2767.88 -7688.28 -15376.87 0 -2767.88 7688.28zm-12608.99 0l-34136.67 0 0 -43054.95 34136.67 0 0 8611.01 -23065.25 0 0 8303.43 18144.55 0 0 8611.01 -18144.55 0 0 8918.38 23065.25 0 0 8611.11zm-60892.22 -8611.11l22450.1 0 0 8611.11 -33521.52 0 0 -43054.95 11071.41 0 0 34443.84z"/>
  </g>
 </g>
</svg>
