<?xml version="1.0" encoding="UTF-8"?>
<!DOCTYPE svg PUBLIC "-//W3C//DTD SVG 1.1//EN" "http://www.w3.org/Graphics/SVG/1.1/DTD/svg11.dtd">
<!-- Creator: CorelDRAW 2019 (64 Bit) -->
<svg xmlns="http://www.w3.org/2000/svg" xml:space="preserve" width="42cm" height="29.7cm" version="1.1" style="shape-rendering:geometricPrecision; text-rendering:geometricPrecision; image-rendering:optimizeQuality; fill-rule:evenodd; clip-rule:evenodd"
viewBox="0 0 42000 29700"
 xmlns:xlink="http://www.w3.org/1999/xlink">
 <defs>
  <style type="text/css">
   <![CDATA[
    .str0 {stroke:black;stroke-width:20;stroke-miterlimit:22.9256}
    .str1 {stroke:black;stroke-width:20;stroke-miterlimit:22.9256}
    .fil0 {fill:#FEFEFE}
    .fil1 {fill:#0000FB;fill-rule:nonzero}
   ]]>
  </style>
 </defs>
 <g id="Camada_x0020_1">
  <metadata id="CorelCorpID_0Corel-Layer"/>
  <rect class="fil0 str0" x="-5.8" y="0.53" width="42000" height="29700"/>
  <path class="fil1 str1" d="M5935.3 20714.97l-3005.75 -19.37 24.43 -3791.02 3005.75 19.37 -4.89 758.2 -2030.89 -13.09 -4.71 731.12 1597.63 10.29 -4.89 758.2 -1597.63 -10.3 -5.06 785.29 2030.89 13.09 -4.88 758.22zm324.6 -783.22c988.93,60.52 1658.49,91.93 2008.72,94.19 83.03,0.54 149.08,-23.41 198.15,-71.86 49.04,-48.41 73.84,-114.15 74.37,-197.18l3.14 -487.44 -1245.61 -8.03c-379.11,-2.44 -653.87,-89.96 -824.25,-262.55 -170.39,-172.6 -254.36,-448.47 -251.92,-827.58l1.05 -162.46c2.44,-379.1 89.96,-653.85 262.56,-824.24 172.6,-170.4 448.46,-254.36 827.57,-251.92l1900.92 12.25 -4.88 758.19 -1684.31 -10.85c-216.62,-1.4 -325.64,106.23 -327.03,322.86l-0.7 108.3c-1.4,216.64 106.23,325.65 322.85,327.04l974.84 6.29c353.82,2.28 613.25,86.98 778.26,254.14 165.01,167.18 246.37,427.65 244.09,781.49l-1.75 270.79c-2.28,353.82 -86.98,613.24 -254.13,778.25 -167.16,165 -427.66,246.37 -781.48,244.09 -184.15,-1.19 -379.08,-6.04 -584.83,-14.6l-498.11 -24.86c-368.16,-20.45 -748.9,-48.16 -1142.23,-83.19l4.71 -731.12zm5307.78 819.51l-974.83 -6.28 19.54 -3032.82 -1137.31 -7.33 4.89 -758.19 3249.46 20.94 -4.89 758.19 -1137.32 -7.33 -19.54 3032.82zm1814.28 11.69l-1056.08 -6.8 1459.62 -3781.77 1083.13 6.98 1410.75 3800.26 -1056.08 -6.8 -239.33 -678.54 -1353.93 -8.72 -248.08 675.39zm496.31 -1377.88l866.53 5.59 -425.08 -1275.49 -441.45 1269.9zm5934.96 -692.91l-766.92 1349.05 -758.21 -4.89 -749.48 -1358.82 -13.61 2112.15 -974.84 -6.28 24.43 -3791.01 1028.99 6.63 1070.25 2010.79 1096.05 -1996.83 1029.01 6.63 -24.43 3791.01 -974.85 -6.28 13.61 -2112.15z"/>
  <path class="fil1 str1" d="M21311.47 17061.44l2268.19 14.62c378.03,2.44 651.99,89.7 821.9,261.85 169.92,172.1 253.65,447.17 251.22,825.2l-3.48 540.05c-2.44,378.03 -89.71,651.99 -261.84,821.89 -172.11,169.91 -447.17,253.65 -825.2,251.22l-1296.12 -8.36 -6.96 1080.1 -972.07 -6.26 24.36 -3780.31zm2369.23 1095.41c1.4,-216.01 -105.92,-324.73 -321.92,-326.12l-1080.11 -6.96 -7.66 1188.07 1080.11 6.97c216.01,1.39 324.71,-105.91 326.1,-321.92l3.48 -540.04zm1791.74 2711.87l-1053.09 -6.79 1455.48 -3771.08 1080.09 6.96 1406.75 3789.53 -1053.08 -6.79 -238.67 -676.63 -1350.1 -8.71 -247.38 673.51zm494.92 -1373.99l864.06 5.57 -423.85 -1271.89 -440.21 1266.32zm2688.69 -2385.96l2268.19 14.62c378.01,2.44 651.99,89.7 821.9,261.84 169.91,172.11 253.65,447.18 251.21,825.21l-3.13 486.04c-1.93,298.82 -52.91,530.72 -153,695.68 -100.08,164.98 -258.3,273.78 -474.66,326.39l667.4 1192.45 -1053.08 -6.78 -613.74 -1138.11 -756.06 -4.88 -7.31 1134.11 -972.09 -6.26 24.37 -3780.31zm2369.23 1095.41c1.39,-216.01 -105.91,-324.73 -321.93,-326.12l-1080.09 -6.96 -7.31 1134.09 1080.09 6.96c216.02,1.39 324.71,-105.92 326.11,-321.94l3.13 -486.03zm3276.86 2721.44l-1944.16 -12.53 4.87 -756.08 486.05 3.13 14.62 -2268.16 -486.05 -3.13 4.87 -756.06 1944.16 12.52 -4.87 756.06 -486.04 -3.13 -14.62 2268.17 486.04 3.13 -4.87 756.08zm1161.08 7.48l-1053.07 -6.78 1455.48 -3771.09 1080.07 6.96 1406.75 3789.53 -1053.08 -6.79 -238.67 -676.63 -1350.1 -8.7 -247.38 673.5zm494.92 -1373.99l864.06 5.57 -423.85 -1271.89 -440.21 1266.32z"/>
  <path class="fil1 str1" d="M32942.32 12918.91c-4.49,695.5 -165.09,1199.59 -481.74,1512.17 -316.66,312.6 -822.76,466.66 -1518.24,462.18l-2483.96 -16.01c-695.52,-4.48 -1199.56,-165.05 -1512.19,-481.7 -312.6,-316.64 -466.66,-822.76 -462.18,-1518.26l20.49 -3179.44c4.48,-695.54 165.05,-1199.58 481.7,-1512.19 316.69,-312.62 822.76,-466.68 1518.28,-462.2l2483.96 16.01c695.48,4.48 1199.56,165.05 1512.15,481.72 312.6,316.67 466.7,822.74 462.22,1518.27l-20.49 3179.45zm-1767.96 -3190.97c2.56,-397.45 -194.88,-597.47 -592.3,-600.03l-1689.13 -10.89c-397.42,-2.56 -597.42,194.9 -599.98,592.35l-20.49 3179.45c-2.56,397.43 194.88,597.43 592.29,599.99l1689.14 10.89c397.41,2.56 597.42,-194.89 599.98,-592.32l20.49 -3179.44zm-7778.48 -3339.05c211.97,1.37 378.43,-130.04 499.36,-394.25l643.26 401.61c-60.96,211.59 -141.66,396.54 -242.03,554.88 -234.36,389.28 -537,582.77 -907.95,580.38 -139.09,-0.9 -259.8,-28.18 -362.15,-81.83 -102.32,-53.63 -198.02,-110.57 -287.04,-170.78 -89.03,-60.17 -176.45,-117.02 -262.23,-170.57 -85.76,-53.57 -178.31,-80.64 -277.69,-81.28 -211.95,-1.36 -378.39,130.05 -499.35,394.21l-643.27 -401.57c108.66,-409.99 306.12,-730.02 592.42,-960.01 146.51,-118.3 310.84,-176.84 493,-175.66 182.17,1.17 324.39,28.59 426.7,82.2 102.36,53.67 198.06,110.59 287.06,170.8 89.07,60.18 176.43,117.05 262.23,170.62 85.78,53.49 178.34,80.61 277.68,81.25zm-1428.51 5813.42l1589.72 10.25 -779.83 -2340.05 -809.89 2329.8zm-910.57 2527.89l-1937.5 -12.48 2677.83 -6938.11 1987.16 12.8 2588.18 6972.05 -1937.47 -12.49 -439.11 -1244.84 -2483.97 -16.01 -455.12 1239.08zm-2036.86 -13.12l-5514.41 -35.54 44.82 -6955.08 5514.41 35.54 -8.97 1391.02 -3725.94 -24.02 -8.65 1341.35 2931.07 18.89 -8.96 1391.01 -2931.07 -18.89 -9.28 1440.67 3725.94 24.01 -8.96 1391.04zm-9827.53 -1454.42l3626.58 23.37 -8.96 1391.03 -5415.05 -34.89 44.82 -6955.08 1788.46 11.52 -35.85 5564.05z"/>
 </g>
</svg>
